Patient4_TMGait_0pt6_02_right_38_GRF.mot
version=1
nRows=65
nColumns=19
inDegrees=no
endheader
time	F1x	F1y	F1z	M1x	M1y	M1z	F2x	F2y	F2z	M2x	M2y	M2z	EC1x	EC1y	EC1z	EC2x	EC2y	EC2z
45.76	-64.6259	721.0008	87.7381	-245.4487	-106.422	800.1129	1.805	19.5579	-3.6858	4.9344	4.1573	17.7976	-0.0592	0.0182	-0.0073	-0.0462	0.0165	0.9585
45.7726	-49.4115	715.4826	82.3494	-243.1599	-98.3173	794.0776	0.8899	14.6708	-2.5865	3.8599	3.0282	13.7992	-0.0592	0.0182	-0.0073	-0.0462	0.0165	0.9585
45.7853	-35.9615	710.4648	77.6425	-241.1212	-90.9989	787.6123	0.17056	10.5943	-1.663	2.973	2.0752	10.4549	-0.0592	0.0182	-0.0073	-0.0462	0.0165	0.9585
45.7979	-25.0599	706.5681	73.8273	-239.5715	-84.8286	781.3719	-0.32611	7.5537	-0.9665	2.3237	1.354	7.9521	-0.0592	0.0182	-0.0073	-0.0462	0.0165	0.9585
45.8106	-16.8522	704.1651	70.9183	-238.6393	-79.8886	775.8998	-0.66031	5.5214	-0.49738	1.9023	0.87636	6.2933	-0.0592	0.0182	-0.0073	-0.0462	0.0165	0.9585
45.8232	-11.0547	703.398	68.7824	-238.363	-76.049	771.4971	-0.85025	4.3035	-0.22026	1.6592	0.60426	5.2979	-0.0592	0.0182	-0.0073	-0.0462	0.0165	0.9585
45.8359	-7.1495	704.2209	67.2607	-238.7161	-73.0961	768.2409	-0.96439	3.6586	-0.09956	1.5299	0.50836	4.7622	-0.0592	0.0182	-0.0073	-0.0462	0.0165	0.9585
45.8485	-4.4857	706.4961	66.1449	-239.6436	-70.7207	766.0599	-1.0292	3.2815	-0.091377	1.4312	0.54011	4.3864	-0.0592	0.0182	-0.0073	-0.0462	0.0165	0.9585
45.8611	-2.4214	710.0438	65.2838	-241.0777	-68.6482	764.7829	-1.0838	2.8933	-0.16327	1.2795	0.66547	3.906	-0.0592	0.0182	-0.0073	-0.0462	0.0165	0.9585
45.8738	-0.40097	714.6715	64.5308	-242.9467	-66.6213	764.2044	-1.1289	2.2174	-0.27952	0.98704	0.83867	3.0288	-0.0592	0.0182	-0.0073	-0.0462	0.0165	0.9585
45.8864	2.0372	720.1823	63.822	-245.1741	-64.4727	764.1218	-1.1567	1.011	-0.40722	0.47283	1.0139	1.4843	-0.0592	0.0182	-0.0073	-0.0462	0.0165	0.9585
45.8991	5.1868	726.3607	63.118	-247.6693	-62.0979	764.3489	-1.1397	-0.91677	-0.5122	-0.32718	1.1331	-0.94726	-0.0592	0.0182	-0.0073	-0.0462	0.0165	0.9585
45.9117	9.1766	732.9074	62.4479	-250.3027	-59.5002	764.636	-1.0083	-3.664	-0.56938	-1.442	1.1334	-4.3776	-0.0592	0.0182	-0.0073	-0.0462	0.0165	0.9585
45.9244	13.9679	739.446	61.8515	-252.9088	-56.7447	764.7089	-0.70691	-7.1452	-0.53986	-2.8316	0.94522	-8.6848	-0.0592	0.0182	-0.0073	-0.0462	0.0165	0.9585
45.937	19.3812	745.4606	61.3969	-255.2715	-53.9618	764.1941	-0.13917	-11.018	-0.37941	-4.3538	0.48714	-13.4528	-0.0592	0.0182	-0.0073	-0.0462	0.0165	0.9585
45.9496	25.1071	750.2736	61.1134	-257.1215	-51.2811	762.5933	0.75802	-14.4981	-0.030607	-5.6997	-0.32441	-17.7118	-0.0592	0.0182	-0.0073	-0.0462	0.0165	0.9585
45.9623	30.8157	753.0869	61.0044	-258.1577	-48.8159	759.2942	2.0566	-16.2968	0.56012	-6.3576	-1.5683	-19.8948	-0.0592	0.0182	-0.0073	-0.0462	0.0165	0.9585
45.9749	36.203	753.0245	61.0072	-258.068	-46.6096	753.6169	3.7348	-14.4245	1.4485	-5.5511	-3.2957	-17.5576	-0.0592	0.0182	-0.0073	-0.0462	0.0165	0.9585
45.9876	40.9971	749.1658	61.0385	-256.5415	-44.6783	744.8122	5.7134	-6.1747	2.6597	-2.2283	-5.4922	-7.4042	-0.0592	0.0182	-0.0073	-0.0462	0.0165	0.9585
46.0002	44.9667	740.6202	60.9843	-253.2923	-42.9932	732.1283	7.7113	11.8038	4.1598	4.9061	-7.9984	14.6649	-0.0592	0.0182	-0.0073	-0.0462	0.0165	0.9585
46.0129	47.9607	726.5853	60.7105	-248.0822	-41.4856	714.8587	9.2285	43.162	5.8035	17.2578	-10.4347	53.1115	-0.0592	0.0182	-0.0073	-0.0462	0.0165	0.9585
46.0255	49.9022	706.3418	60.0398	-240.7201	-40.0192	692.3152	9.4534	91.1717	7.2796	36.0729	-12.0997	111.9298	-0.0592	0.0182	-0.0073	-0.0462	0.0165	0.9585
46.0381	50.7909	679.2055	58.7597	-231.0372	-38.3991	663.7856	7.192	157.5441	8.0573	61.9721	-11.8833	193.203	-0.0592	0.0182	-0.0073	-0.0462	0.0165	0.9585
46.0508	50.6557	644.4021	56.6452	-218.836	-36.4	628.433	0.95479	240.7161	7.3318	94.2839	-8.258	294.9818	-0.0592	0.0182	-0.0073	-0.0462	0.0165	0.9585
46.0634	49.489	601.1322	53.5129	-203.8983	-33.8493	585.3693	-10.3285	334.1686	4.221	130.3833	0.20075	409.2301	-0.0592	0.0182	-0.0073	-0.0462	0.0165	0.9585
46.0761	47.1913	548.8982	49.3222	-186.0842	-30.7312	533.9985	-25.2517	426.4049	-2.3273	165.7247	14.0808	521.6873	-0.0592	0.0182	-0.0073	-0.0462	0.0165	0.9585
46.0887	43.6656	488.0699	44.2676	-165.5063	-27.252	474.5745	-40.4441	506.6065	-12.4626	196.0791	32.0804	618.7378	-0.0592	0.0182	-0.0073	-0.0462	0.0165	0.9585
46.1014	38.8196	420.3103	38.7472	-142.6669	-23.7952	408.6421	-53.3929	570.1516	-24.6045	219.7011	51.3427	694.3417	-0.0592	0.0182	-0.0073	-0.0462	0.0165	0.9585
46.114	32.783	348.4789	33.2068	-118.4593	-20.7134	338.9051	-62.7561	618.1569	-37.0442	237.1194	69.2949	749.7505	-0.0592	0.0182	-0.0073	-0.0462	0.0165	0.9585
46.1266	25.8515	276.3342	27.8982	-94.0997	-18.122	268.9666	-68.1226	654.2763	-47.9136	249.8807	83.6695	789.4903	-0.0592	0.0182	-0.0073	-0.0462	0.0165	0.9585
46.1393	18.5653	207.9879	22.9198	-70.9563	-15.9286	202.7579	-69.8714	682.1041	-56.4882	259.4663	93.7633	818.1741	-0.0592	0.0182	-0.0073	-0.0462	0.0165	0.9585
46.1519	11.6166	147.1856	18.3027	-50.3022	-13.9257	143.856	-68.573	704.1483	-62.397	266.9098	99.4806	839.0044	-0.0592	0.0182	-0.0073	-0.0462	0.0165	0.9585
46.1646	5.7613	96.4487	14.0676	-33.0196	-11.8809	94.6453	-64.9979	721.8342	-66.252	272.7615	101.8438	853.9565	-0.0592	0.0182	-0.0073	-0.0462	0.0165	0.9585
46.1772	1.5144	56.784	10.2216	-19.4815	-9.6311	56.0811	-59.7551	735.8724	-68.5756	277.2882	101.7927	864.0923	-0.0592	0.0182	-0.0073	-0.0462	0.0165	0.9585
46.1899	-1.0101	27.885	6.8212	-9.6056	-7.2014	27.8986	-53.4848	746.457	-70.1211	280.5353	100.452	869.9144	-0.0592	0.0182	-0.0073	-0.0462	0.0165	0.9585
46.2025	-2.0991	8.572	3.9861	-3.0015	-4.8152	8.9918	-46.7245	753.3162	-71.1304	282.399	98.3665	871.2967	-0.0592	0.0182	-0.0073	-0.0462	0.0165	0.9585
46.2151	-2.2681	-2.8797	1.8782	0.92093	-2.8103	-2.2567	-39.9776	756.1624	-71.7818	282.7791	95.9286	868.1006	-0.0592	0.0182	-0.0073	-0.0462	0.0165	0.9585
46.2278	-1.8989	-8.4992	0.46718	2.8507	-1.2978	-7.8209	-33.554	755.1645	-71.78	281.7718	92.9586	860.6402	-0.0592	0.0182	-0.0073	-0.0462	0.0165	0.9585
46.2404	-1.3126	-10.1898	-0.37578	3.4381	-0.26467	-9.5363	-27.622	751.0261	-70.9776	279.6655	89.3562	849.8152	-0.0592	0.0182	-0.0073	-0.0462	0.0165	0.9585
46.2531	-0.68039	-9.534	-0.78731	3.2217	0.36629	-8.9666	-22.2962	744.7269	-69.2466	276.8399	85.0405	836.8074	-0.0592	0.0182	-0.0073	-0.0462	0.0165	0.9585
46.2657	-0.12961	-7.7099	-0.91629	2.6044	0.7029	-7.2338	-17.6294	737.2758	-66.8744	273.6549	80.34	822.8085	-0.0592	0.0182	-0.0073	-0.0462	0.0165	0.9585
46.2784	0.3064	-5.5164	-0.87086	1.8602	0.83641	-5.1194	-13.715	729.7197	-64.1544	270.464	75.6161	809.0398	-0.0592	0.0182	-0.0073	-0.0462	0.0165	0.9585
46.291	0.61092	-3.4305	-0.74174	1.1534	0.84304	-3.0873	-10.6392	723.1158	-61.4722	267.6241	71.3087	796.6988	-0.0592	0.0182	-0.0073	-0.0462	0.0165	0.9585
46.3036	0.80334	-1.6875	-0.58159	0.56448	0.77687	-1.3709	-8.5178	718.6638	-58.9878	265.5506	67.636	787.117	-0.0592	0.0182	-0.0073	-0.0462	0.0165	0.9585
46.3163	0.91915	-0.37594	-0.43471	0.12206	0.69144	-0.072781	-7.4145	717.4648	-56.8269	264.6346	64.747	781.4656	-0.0592	0.0182	-0.0073	-0.0462	0.0165	0.9585
46.3289	0.96571	0.53814	-0.31388	-0.18477	0.60475	0.84648	-7.343	720.3312	-54.9767	265.1666	62.624	780.5841	-0.0592	0.0182	-0.0073	-0.0462	0.0165	0.9585
46.3416	0.98548	1.1041	-0.22996	-0.37486	0.54258	1.4171	-8.1994	727.5266	-53.4865	267.2353	61.2659	784.6909	-0.0592	0.0182	-0.0073	-0.0462	0.0165	0.9585
46.3542	0.97359	1.4323	-0.18079	-0.48219	0.50336	1.7645	-9.7842	738.682	-52.3335	270.7001	60.5645	793.2918	-0.0592	0.0182	-0.0073	-0.0462	0.0165	0.9585
46.3669	0.95818	1.5924	-0.16197	-0.5322	0.49168	1.9252	-11.7934	752.8279	-51.5074	275.2038	60.38	805.2371	-0.0592	0.0182	-0.0073	-0.0462	0.0165	0.9585
46.3795	0.92319	1.6607	-0.16228	-0.55022	0.4902	1.987	-13.8714	768.5409	-50.9113	280.2303	60.4663	818.8948	-0.0592	0.0182	-0.0073	-0.0462	0.0165	0.9585
46.3921	0.89117	1.6716	-0.17152	-0.55159	0.49529	1.9755	-15.6894	784.109	-50.4962	285.1607	60.6281	832.3522	-0.0592	0.0182	-0.0073	-0.0462	0.0165	0.9585
46.4048	0.85218	1.6648	-0.17725	-0.55117	0.48936	1.9504	-16.962	797.7779	-50.1856	289.3643	60.6711	843.6698	-0.0592	0.0182	-0.0073	-0.0462	0.0165	0.9585
46.4174	0.80153	1.6411	-0.18008	-0.55121	0.47283	1.9218	-17.5181	808.008	-49.9529	292.2895	60.4999	851.1739	-0.0592	0.0182	-0.0073	-0.0462	0.0165	0.9585
46.4301	0.75054	1.6095	-0.1722	-0.55113	0.43713	1.8891	-17.2785	813.6958	-49.7382	293.5493	60.0318	853.6908	-0.0592	0.0182	-0.0073	-0.0462	0.0165	0.9585
46.4427	0.6789	1.5609	-0.1587	-0.54345	0.37992	1.8395	-16.262	814.315	-49.4866	292.9727	59.2249	850.6995	-0.0592	0.0182	-0.0073	-0.0462	0.0165	0.9585
46.4554	0.60295	1.4441	-0.12281	-0.50864	0.29179	1.695	-14.544	809.9928	-49.1035	290.6314	58.0174	842.3778	-0.0592	0.0182	-0.0073	-0.0462	0.0165	0.9585
46.468	0.49046	1.2147	-0.067112	-0.42657	0.17329	1.419	-12.2403	801.4483	-48.5279	286.8114	56.3961	829.524	-0.0592	0.0182	-0.0073	-0.0462	0.0165	0.9585
46.4806	0.37247	0.78278	0.024919	-0.26151	0.017233	0.89542	-9.5053	789.7851	-47.7112	281.9389	54.3708	813.3321	-0.0592	0.0182	-0.0073	-0.0462	0.0165	0.9585
46.4933	0.21913	0.071407	0.14354	0.020552	-0.17421	0.056374	-6.4805	776.295	-46.6834	276.4961	52.0247	795.1832	-0.0592	0.0182	-0.0073	-0.0462	0.0165	0.9585
46.5059	0.076896	-1.0096	0.29667	0.45307	-0.39962	-1.2159	-3.2957	762.2453	-45.5012	270.9473	49.4655	776.4204	-0.0592	0.0182	-0.0073	-0.0462	0.0165	0.9585
46.5186	-0.0517	-2.4992	0.46257	1.0516	-0.63295	-2.9463	-0.053338	748.7729	-44.2842	265.6997	46.8461	758.2357	-0.0592	0.0182	-0.0073	-0.0462	0.0165	0.9585
46.5312	-0.096571	-4.3691	0.62581	1.8034	-0.83386	-5.1145	3.201	736.8614	-43.1483	261.0949	44.2981	741.6508	-0.0592	0.0182	-0.0073	-0.0462	0.0165	0.9585
46.5439	0.0064621	-6.4565	0.73758	2.6427	-0.91774	-7.5315	6.4427	727.2789	-42.2437	257.3888	41.9751	727.4581	-0.0592	0.0182	-0.0073	-0.0462	0.0165	0.9585
46.5565	0.36564	-8.4014	0.73963	3.4229	-0.77289	-9.7862	9.703	720.518	-41.6859	254.7353	39.9756	716.149	-0.0592	0.0182	-0.0073	-0.0462	0.0165	0.9585
46.5691	1.1094	-9.5818	0.53851	3.8902	-0.23959	-11.1653	13.0219	716.7674	-41.5848	253.1723	38.3842	707.9161	-0.0592	0.0182	-0.0073	-0.0462	0.0165	0.9585
